<svg width="281" height="306" viewBox="0 0 281 306" fill="none" xmlns="http://www.w3.org/2000/svg">
<path d="M142.65 156.79C153.311 151.126 160.997 144.733 159.816 142.512C158.636 140.291 149.037 143.083 138.377 148.747C127.716 154.411 120.03 160.803 121.21 163.024C122.39 165.245 131.989 162.454 142.65 156.79Z" stroke="url(#paint0_linear_404_182)" stroke-opacity="0.5" stroke-width="2" stroke-miterlimit="10"/>
<path d="M142.807 156.881C154.197 150.539 162.405 143.557 161.141 141.286C159.876 139.015 149.618 142.316 138.228 148.658C126.839 155 118.63 161.982 119.895 164.253C121.159 166.523 131.417 163.223 142.807 156.881Z" stroke="url(#paint1_linear_404_182)" stroke-opacity="0.5" stroke-width="2" stroke-miterlimit="10"/>
<path d="M143.025 156.953C155.198 149.867 163.972 142.243 162.623 139.924C161.273 137.606 150.311 141.47 138.138 148.556C125.965 155.642 117.191 163.265 118.54 165.584C119.89 167.903 130.852 164.038 143.025 156.953Z" stroke="url(#paint2_linear_404_182)" stroke-opacity="0.5" stroke-width="2" stroke-miterlimit="10"/>
<path d="M143.056 157.084C156.027 149.21 165.378 140.91 163.943 138.545C162.507 136.18 150.828 140.646 137.858 148.52C124.887 156.394 115.536 164.694 116.971 167.059C118.407 169.423 130.086 164.957 143.056 157.084Z" stroke="url(#paint3_linear_404_182)" stroke-opacity="0.5" stroke-width="2" stroke-miterlimit="10"/>
<path d="M143.301 157.154C157.086 148.444 167.026 139.429 165.504 137.019C163.981 134.61 151.572 139.717 137.787 148.428C124.002 157.139 114.062 166.153 115.584 168.563C117.107 170.973 129.516 165.865 143.301 157.154Z" stroke="url(#paint4_linear_404_182)" stroke-opacity="0.5" stroke-width="2" stroke-miterlimit="10"/>
<path d="M143.43 157.205C158.076 147.588 168.643 137.803 167.033 135.35C165.422 132.897 152.243 138.706 137.597 148.323C122.951 157.941 112.384 167.725 113.994 170.178C115.605 172.631 128.784 166.823 143.43 157.205Z" stroke="url(#paint5_linear_404_182)" stroke-opacity="0.5" stroke-width="2" stroke-miterlimit="10"/>
<path d="M143.558 157.386C159.077 146.813 170.261 136.193 168.538 133.664C166.815 131.135 152.838 137.656 137.319 148.229C121.8 158.801 110.616 169.422 112.339 171.951C114.062 174.479 128.039 167.958 143.558 157.386Z" stroke="url(#paint6_linear_404_182)" stroke-opacity="0.5" stroke-width="2" stroke-miterlimit="10"/>
<path d="M143.763 157.502C160.199 145.899 172.034 134.383 170.197 131.781C168.36 129.178 153.546 136.475 137.11 148.078C120.674 159.682 108.839 171.198 110.676 173.8C112.513 176.402 127.327 169.106 143.763 157.502Z" stroke="url(#paint7_linear_404_182)" stroke-opacity="0.5" stroke-width="2" stroke-miterlimit="10"/>
<path d="M144.031 157.6C161.359 144.937 173.822 132.505 171.868 129.831C169.914 127.158 154.283 135.255 136.955 147.917C119.627 160.58 107.164 173.012 109.118 175.686C111.071 178.359 126.702 170.262 144.031 157.6Z" stroke="url(#paint8_linear_404_182)" stroke-opacity="0.5" stroke-width="2" stroke-miterlimit="10"/>
<path d="M144.262 157.821C162.523 144.025 175.647 130.618 173.575 127.875C171.503 125.133 155.02 134.094 136.758 147.89C118.497 161.686 105.373 175.093 107.445 177.836C109.517 180.578 126 171.618 144.262 157.821Z" stroke="url(#paint9_linear_404_182)" stroke-opacity="0.5" stroke-width="2" stroke-miterlimit="10"/>
<path d="M144.6 157.896C163.831 142.883 177.623 128.409 175.404 125.567C173.186 122.725 155.798 132.592 136.566 147.605C117.335 162.619 103.544 177.093 105.762 179.935C107.98 182.776 125.369 172.909 144.6 157.896Z" stroke="url(#paint10_linear_404_182)" stroke-opacity="0.5" stroke-width="2" stroke-miterlimit="10"/>
<path d="M144.772 158.141C164.942 141.885 179.373 126.327 177.006 123.389C174.639 120.452 156.369 131.248 136.2 147.504C116.03 163.759 101.599 179.318 103.966 182.255C106.333 185.192 124.603 174.396 144.772 158.141Z" stroke="url(#paint11_linear_404_182)" stroke-opacity="0.5" stroke-width="2" stroke-miterlimit="10"/>
<path d="M144.986 158.275C166.126 140.693 181.221 123.985 178.702 120.955C176.183 117.926 157.003 129.724 135.863 147.306C114.722 164.888 99.6273 181.596 102.147 184.625C104.666 187.655 123.846 175.857 144.986 158.275Z" stroke="url(#paint12_linear_404_182)" stroke-opacity="0.5" stroke-width="2" stroke-miterlimit="10"/>
<path d="M145.339 158.388C167.451 139.42 183.208 121.516 180.533 118.398C177.858 115.28 157.765 128.129 135.654 147.097C113.542 166.066 97.7854 183.97 100.46 187.088C103.135 190.205 123.228 177.356 145.339 158.388Z" stroke="url(#paint13_linear_404_182)" stroke-opacity="0.5" stroke-width="2" stroke-miterlimit="10"/>
<path d="M145.718 158.652C168.829 138.213 185.245 119.022 182.384 115.788C179.524 112.554 158.47 126.501 135.36 146.94C112.249 167.378 95.8334 186.569 98.6937 189.803C101.554 193.038 122.608 179.09 145.718 158.652Z" stroke="url(#paint14_linear_404_182)" stroke-opacity="0.5" stroke-width="2" stroke-miterlimit="10"/>
<path d="M146.066 158.917C170.135 136.975 187.152 116.45 184.074 113.074C180.996 109.697 158.989 124.748 134.92 146.69C110.851 168.632 93.8342 189.157 96.9123 192.533C99.9904 195.91 121.997 180.859 146.066 158.917Z" stroke="url(#paint15_linear_404_182)" stroke-opacity="0.5" stroke-width="2" stroke-miterlimit="10"/>
<path d="M146.534 159.112C171.554 135.603 189.16 113.697 185.859 110.184C182.558 106.671 159.6 122.881 134.58 146.39C109.56 169.899 91.9534 191.805 95.2544 195.318C98.5555 198.832 121.514 182.621 146.534 159.112Z" stroke="url(#paint16_linear_404_182)" stroke-opacity="0.5" stroke-width="2" stroke-miterlimit="10"/>
<path d="M146.942 159.353C172.899 134.216 191.082 110.884 187.553 107.241C184.025 103.597 160.121 121.021 134.164 146.158C108.206 171.296 90.0236 194.628 93.5522 198.271C97.0807 201.915 120.984 184.491 146.942 159.353Z" stroke="url(#paint17_linear_404_182)" stroke-opacity="0.5" stroke-width="2" stroke-miterlimit="10"/>
<path d="M147.356 159.702C174.266 132.845 193.008 107.995 189.218 104.197C185.428 100.4 160.54 119.093 133.631 145.949C106.721 172.806 87.9787 197.656 91.7689 201.453C95.559 205.251 120.446 186.558 147.356 159.702Z" stroke="url(#paint18_linear_404_182)" stroke-opacity="0.5" stroke-width="2" stroke-miterlimit="10"/>
<path d="M147.876 159.94C175.66 131.354 194.895 104.983 190.837 101.039C186.779 97.0944 160.965 117.07 133.181 145.656C105.396 174.242 86.1617 200.613 90.2196 204.557C94.2776 208.502 120.091 188.525 147.876 159.94Z" stroke="url(#paint19_linear_404_182)" stroke-opacity="0.5" stroke-width="2" stroke-miterlimit="10"/>
<path d="M148.444 160.239C177.109 129.827 196.786 101.818 192.393 97.6774C188.001 93.5372 161.203 114.834 132.538 145.246C103.873 175.658 84.1965 203.667 88.589 207.808C92.9814 211.948 119.78 190.65 148.444 160.239Z" stroke="url(#paint20_linear_404_182)" stroke-opacity="0.5" stroke-width="2" stroke-miterlimit="10"/>
<path d="M149.029 160.57C178.523 128.297 198.619 98.6493 193.915 94.3511C189.212 90.053 161.49 112.732 131.997 145.005C102.504 177.279 82.4076 206.927 87.1109 211.225C91.8143 215.523 119.536 192.844 149.029 160.57Z" stroke="url(#paint21_linear_404_182)" stroke-opacity="0.5" stroke-width="2" stroke-miterlimit="10"/>
<path d="M149.677 160.879C179.937 126.703 200.346 95.3479 195.262 90.8464C190.178 86.3449 161.526 110.401 131.266 144.578C101.006 178.754 80.5971 210.109 85.6812 214.61C90.7653 219.112 119.417 195.056 149.677 160.879Z" stroke="url(#paint22_linear_404_182)" stroke-opacity="0.5" stroke-width="2" stroke-miterlimit="10"/>
<path d="M150.498 161.367C181.497 125.221 202.165 92.091 196.66 87.3702C191.155 82.6493 161.563 108.125 130.564 144.272C99.5644 180.419 78.897 213.548 84.4018 218.269C89.9065 222.99 119.499 197.514 150.498 161.367Z" stroke="url(#paint23_linear_404_182)" stroke-opacity="0.5" stroke-width="2" stroke-miterlimit="10"/>
<path d="M151.212 161.721C182.852 123.595 203.69 88.6957 197.755 83.7703C191.82 78.8449 161.359 105.759 129.719 143.885C98.0791 182.011 77.2409 216.91 83.1759 221.836C89.1109 226.761 119.572 199.847 151.212 161.721Z" stroke="url(#paint24_linear_404_182)" stroke-opacity="0.5" stroke-width="2" stroke-miterlimit="10"/>
<path d="M152.152 162.062C184.39 121.88 205.304 85.1161 198.863 79.9484C192.422 74.7808 161.066 103.166 128.827 143.349C96.5879 183.531 75.6746 220.295 82.1156 225.463C88.5566 230.63 119.913 202.245 152.152 162.062Z" stroke="url(#paint25_linear_404_182)" stroke-opacity="0.5" stroke-width="2" stroke-miterlimit="10"/>
<path d="M153.146 162.566C185.886 120.324 206.76 81.6875 199.77 76.2693C192.779 70.8512 160.571 100.703 127.831 142.946C95.0908 185.188 74.2169 223.825 81.2076 229.243C88.1983 234.661 120.406 204.809 153.146 162.566Z" stroke="url(#paint26_linear_404_182)" stroke-opacity="0.5" stroke-width="2" stroke-miterlimit="10"/>
<path d="M154.286 163.139C187.449 118.797 208.156 78.2304 200.536 72.5317C192.916 66.8331 159.855 98.1599 126.693 142.502C93.5301 186.845 72.8235 227.411 80.4433 233.11C88.0631 238.808 121.124 207.481 154.286 163.139Z" stroke="url(#paint27_linear_404_182)" stroke-opacity="0.5" stroke-width="2" stroke-miterlimit="10"/>
<path d="M155.434 163.565C188.883 117.145 209.3 74.6871 201.036 68.7325C192.772 62.7778 158.957 95.5815 125.508 142.002C92.0591 188.422 71.6425 230.88 79.9063 236.834C88.1701 242.789 121.985 209.985 155.434 163.565Z" stroke="url(#paint28_linear_404_182)" stroke-opacity="0.5" stroke-width="2" stroke-miterlimit="10"/>
<path d="M156.773 164.096C190.42 115.56 210.38 71.1409 201.355 64.8843C192.33 58.6277 157.737 92.9024 124.09 141.439C90.4425 189.975 70.4824 234.394 79.5077 240.651C88.5329 246.907 123.126 212.633 156.773 164.096Z" stroke="url(#paint29_linear_404_182)" stroke-opacity="0.5" stroke-width="2" stroke-miterlimit="10"/>
<path d="M158.368 164.633C192.099 113.97 211.438 67.5703 201.564 60.996C191.689 54.4218 156.341 90.1628 122.61 140.826C88.8793 191.489 69.5399 237.889 79.4143 244.463C89.2887 251.037 124.638 215.296 158.368 164.633Z" stroke="url(#paint30_linear_404_182)" stroke-opacity="0.5" stroke-width="2" stroke-miterlimit="10"/>
<path d="M160.052 165.181C193.744 112.388 212.319 64.0159 201.542 57.1377C190.764 50.2595 154.715 87.4802 121.023 140.272C87.3312 193.065 68.7555 241.437 79.533 248.315C90.3105 255.193 126.36 217.973 160.052 165.181Z" stroke="url(#paint31_linear_404_182)" stroke-opacity="0.5" stroke-width="2" stroke-miterlimit="10"/>
<path d="M161.972 165.82C195.451 110.968 212.99 60.6425 201.147 53.4138C189.304 46.1851 152.563 84.791 119.084 139.643C85.6049 194.494 68.0658 244.82 79.9091 252.049C91.7525 259.277 128.493 220.671 161.972 165.82Z" stroke="url(#paint32_linear_404_182)" stroke-opacity="0.5" stroke-width="2" stroke-miterlimit="10"/>
<path d="M164.02 166.458C197.156 109.549 213.506 57.2937 200.538 49.7425C187.569 42.1913 150.193 82.2039 117.057 139.113C83.9202 196.022 67.5706 248.278 80.5391 255.829C93.5076 263.38 130.883 223.368 164.02 166.458Z" stroke="url(#paint33_linear_404_182)" stroke-opacity="0.5" stroke-width="2" stroke-miterlimit="10"/>
<path d="M166.253 167.071C198.883 108.144 213.771 53.971 199.507 46.0725C185.242 38.174 147.227 79.5409 114.598 138.468C81.9681 197.395 67.0801 251.569 81.3444 259.467C95.6087 267.366 133.624 225.999 166.253 167.071Z" stroke="url(#paint34_linear_404_182)" stroke-opacity="0.5" stroke-width="2" stroke-miterlimit="10"/>
<path d="M169.001 167.799C200.973 106.896 214.135 50.8271 198.399 42.5662C182.663 34.3054 143.988 76.9804 112.016 137.884C80.0442 198.787 66.8826 254.855 82.6187 263.116C98.3548 271.377 137.03 228.702 169.001 167.799Z" stroke="url(#paint35_linear_404_182)" stroke-opacity="0.5" stroke-width="2" stroke-miterlimit="10"/>
<path d="M171.96 168.373C203.085 105.577 214.251 47.6979 196.899 39.0976C179.547 30.4973 140.249 74.432 109.124 137.229C77.9994 200.025 66.8339 257.904 84.1856 266.504C101.537 275.105 140.835 231.17 171.96 168.373Z" stroke="url(#paint36_linear_404_182)" stroke-opacity="0.5" stroke-width="2" stroke-miterlimit="10"/>
<path d="M175.296 168.957C205.407 104.323 214.26 44.6793 195.071 35.74C175.882 26.8007 135.917 71.9505 105.807 136.585C75.6964 201.219 66.8428 260.863 86.0318 269.802C105.221 278.741 145.186 233.591 175.296 168.957Z" stroke="url(#paint37_linear_404_182)" stroke-opacity="0.5" stroke-width="2" stroke-miterlimit="10"/>
<path d="M178.868 169.498C207.774 103.13 214.01 41.8386 192.797 32.5995C171.583 23.3603 130.954 69.6724 102.048 136.04C73.1427 202.408 66.9066 263.7 88.1198 272.939C109.333 282.178 149.962 235.866 178.868 169.498Z" stroke="url(#paint38_linear_404_182)" stroke-opacity="0.5" stroke-width="2" stroke-miterlimit="10"/>
<path d="M183.1 170.085C210.623 102.092 213.848 39.2469 190.303 29.7162C166.758 20.1854 125.359 67.5782 97.8364 135.571C70.3136 203.564 67.0889 266.409 90.6338 275.94C114.179 285.471 155.577 238.078 183.1 170.085Z" stroke="url(#paint39_linear_404_182)" stroke-opacity="0.5" stroke-width="2" stroke-miterlimit="10"/>
<path d="M187.74 170.43C213.693 100.925 213.563 36.6765 187.449 26.9259C161.336 17.1752 119.128 65.6152 93.1754 135.12C67.2225 204.624 67.3525 268.873 93.4657 278.623C119.579 288.374 161.787 239.934 187.74 170.43Z" stroke="url(#paint40_linear_404_182)" stroke-opacity="0.5" stroke-width="2" stroke-miterlimit="10"/>
<path d="M193.048 170.771C217.258 99.8875 213.346 34.3859 184.31 24.4691C155.274 14.5522 112.11 63.9754 87.9008 134.859C63.6912 205.742 67.6035 271.244 96.6392 281.161C125.675 291.078 168.839 241.655 193.048 170.771Z" stroke="url(#paint41_linear_404_182)" stroke-opacity="0.5" stroke-width="2" stroke-miterlimit="10"/>
<path d="M199.009 170.874C221.302 98.7479 213.175 32.1806 180.856 22.1914C148.538 12.2023 104.266 62.574 81.9735 134.7C59.6805 206.826 67.8077 273.393 100.126 283.382C132.445 293.371 176.716 243 199.009 170.874Z" stroke="url(#paint42_linear_404_182)" stroke-opacity="0.5" stroke-width="2" stroke-miterlimit="10"/>
<path d="M205.603 170.781C225.826 97.5284 213.036 30.0891 177.036 20.1507C141.036 10.2124 95.4587 61.5385 75.2362 134.791C55.0137 208.043 67.8038 275.483 103.804 285.421C139.804 295.359 185.381 244.033 205.603 170.781Z" stroke="url(#paint43_linear_404_182)" stroke-opacity="0.5" stroke-width="2" stroke-miterlimit="10"/>
<path d="M213.15 170.411C231.159 96.1917 213.231 28.1327 173.107 18.3969C132.983 8.66106 85.8568 60.9353 67.848 135.155C49.8392 209.374 67.7672 277.433 107.891 287.169C148.015 296.905 195.141 244.63 213.15 170.411Z" stroke="url(#paint44_linear_404_182)" stroke-opacity="0.5" stroke-width="2" stroke-miterlimit="10"/>
<path d="M221.46 169.677C237.115 94.6692 213.548 26.2964 168.822 16.962C124.096 7.62762 75.1486 60.8664 59.4942 135.874C43.8398 210.882 67.4067 279.255 112.132 288.589C156.858 297.924 205.806 244.685 221.46 169.677Z" stroke="url(#paint45_linear_404_182)" stroke-opacity="0.5" stroke-width="2" stroke-miterlimit="10"/>
<path d="M230.859 168.576C244.059 92.8871 214.29 24.4709 164.367 15.7644C114.444 7.05796 63.2729 61.3582 50.0728 137.048C36.8727 212.737 66.6423 281.153 116.565 289.86C166.488 298.566 217.659 244.266 230.859 168.576Z" stroke="url(#paint46_linear_404_182)" stroke-opacity="0.5" stroke-width="2" stroke-miterlimit="10"/>
<path d="M241.287 166.827C251.938 90.6061 215.442 22.5101 159.771 14.7305C104.1 6.9509 50.3345 62.4337 39.6833 138.655C29.032 214.876 65.528 282.972 121.199 290.751C176.871 298.531 230.636 243.048 241.287 166.827Z" stroke="url(#paint47_linear_404_182)" stroke-opacity="0.5" stroke-width="2" stroke-miterlimit="10"/>
<path d="M252.81 164.575C260.842 87.9968 217.034 20.6406 154.962 14.1308C92.891 7.62094 36.0615 64.4226 28.0302 141.001C19.9989 217.579 63.8071 284.936 125.878 291.445C187.95 297.955 244.779 241.153 252.81 164.575Z" stroke="url(#paint48_linear_404_182)" stroke-opacity="0.5" stroke-width="2" stroke-miterlimit="10"/>
<path d="M265.749 161.488C271.123 84.6289 219.411 18.402 150.246 13.5657C81.0818 8.72943 20.6561 67.1152 15.2818 143.974C9.90751 220.833 61.6198 287.06 130.784 291.896C199.949 296.732 260.375 238.347 265.749 161.488Z" stroke="url(#paint49_linear_404_182)" stroke-opacity="0.5" stroke-width="2" stroke-miterlimit="10"/>
<path d="M140.5 292.273C217.544 292.273 280 229.817 280 152.773C280 75.7291 217.544 13.2728 140.5 13.2728C63.4563 13.2728 1 75.7291 1 152.773C1 229.817 63.4563 292.273 140.5 292.273Z" stroke="url(#paint50_linear_404_182)" stroke-opacity="0.5" stroke-width="2" stroke-miterlimit="10"/>
<defs>
<linearGradient id="paint0_linear_404_182" x1="138.377" y1="148.747" x2="142.65" y2="156.79" gradientUnits="userSpaceOnUse">
<stop stop-color="#793300"/>
<stop offset="1" stop-color="#FD7C1E"/>
</linearGradient>
<linearGradient id="paint1_linear_404_182" x1="138.228" y1="148.658" x2="142.807" y2="156.881" gradientUnits="userSpaceOnUse">
<stop stop-color="#793300"/>
<stop offset="1" stop-color="#FD7C1E"/>
</linearGradient>
<linearGradient id="paint2_linear_404_182" x1="138.138" y1="148.556" x2="143.025" y2="156.953" gradientUnits="userSpaceOnUse">
<stop stop-color="#793300"/>
<stop offset="1" stop-color="#FD7C1E"/>
</linearGradient>
<linearGradient id="paint3_linear_404_182" x1="137.858" y1="148.52" x2="143.056" y2="157.084" gradientUnits="userSpaceOnUse">
<stop stop-color="#793300"/>
<stop offset="1" stop-color="#FD7C1E"/>
</linearGradient>
<linearGradient id="paint4_linear_404_182" x1="137.787" y1="148.428" x2="143.301" y2="157.154" gradientUnits="userSpaceOnUse">
<stop stop-color="#793300"/>
<stop offset="1" stop-color="#FD7C1E"/>
</linearGradient>
<linearGradient id="paint5_linear_404_182" x1="137.597" y1="148.323" x2="143.43" y2="157.205" gradientUnits="userSpaceOnUse">
<stop stop-color="#793300"/>
<stop offset="1" stop-color="#FD7C1E"/>
</linearGradient>
<linearGradient id="paint6_linear_404_182" x1="137.319" y1="148.229" x2="143.558" y2="157.386" gradientUnits="userSpaceOnUse">
<stop stop-color="#793300"/>
<stop offset="1" stop-color="#FD7C1E"/>
</linearGradient>
<linearGradient id="paint7_linear_404_182" x1="137.11" y1="148.078" x2="143.763" y2="157.502" gradientUnits="userSpaceOnUse">
<stop stop-color="#793300"/>
<stop offset="1" stop-color="#FD7C1E"/>
</linearGradient>
<linearGradient id="paint8_linear_404_182" x1="136.955" y1="147.918" x2="144.031" y2="157.6" gradientUnits="userSpaceOnUse">
<stop stop-color="#793300"/>
<stop offset="1" stop-color="#FD7C1E"/>
</linearGradient>
<linearGradient id="paint9_linear_404_182" x1="136.758" y1="147.89" x2="144.262" y2="157.821" gradientUnits="userSpaceOnUse">
<stop stop-color="#793300"/>
<stop offset="1" stop-color="#FD7C1E"/>
</linearGradient>
<linearGradient id="paint10_linear_404_182" x1="136.566" y1="147.606" x2="144.6" y2="157.896" gradientUnits="userSpaceOnUse">
<stop stop-color="#793300"/>
<stop offset="1" stop-color="#FD7C1E"/>
</linearGradient>
<linearGradient id="paint11_linear_404_182" x1="136.2" y1="147.504" x2="144.772" y2="158.141" gradientUnits="userSpaceOnUse">
<stop stop-color="#793300"/>
<stop offset="1" stop-color="#FD7C1E"/>
</linearGradient>
<linearGradient id="paint12_linear_404_182" x1="135.863" y1="147.306" x2="144.986" y2="158.275" gradientUnits="userSpaceOnUse">
<stop stop-color="#793300"/>
<stop offset="1" stop-color="#FD7C1E"/>
</linearGradient>
<linearGradient id="paint13_linear_404_182" x1="135.654" y1="147.097" x2="145.339" y2="158.388" gradientUnits="userSpaceOnUse">
<stop stop-color="#793300"/>
<stop offset="1" stop-color="#FD7C1E"/>
</linearGradient>
<linearGradient id="paint14_linear_404_182" x1="135.36" y1="146.94" x2="145.718" y2="158.652" gradientUnits="userSpaceOnUse">
<stop stop-color="#793300"/>
<stop offset="1" stop-color="#FD7C1E"/>
</linearGradient>
<linearGradient id="paint15_linear_404_182" x1="134.92" y1="146.69" x2="146.066" y2="158.917" gradientUnits="userSpaceOnUse">
<stop stop-color="#793300"/>
<stop offset="1" stop-color="#FD7C1E"/>
</linearGradient>
<linearGradient id="paint16_linear_404_182" x1="134.58" y1="146.39" x2="146.534" y2="159.112" gradientUnits="userSpaceOnUse">
<stop stop-color="#793300"/>
<stop offset="1" stop-color="#FD7C1E"/>
</linearGradient>
<linearGradient id="paint17_linear_404_182" x1="134.164" y1="146.158" x2="146.942" y2="159.353" gradientUnits="userSpaceOnUse">
<stop stop-color="#793300"/>
<stop offset="1" stop-color="#FD7C1E"/>
</linearGradient>
<linearGradient id="paint18_linear_404_182" x1="133.631" y1="145.949" x2="147.356" y2="159.702" gradientUnits="userSpaceOnUse">
<stop stop-color="#793300"/>
<stop offset="1" stop-color="#FD7C1E"/>
</linearGradient>
<linearGradient id="paint19_linear_404_182" x1="133.181" y1="145.656" x2="147.876" y2="159.94" gradientUnits="userSpaceOnUse">
<stop stop-color="#793300"/>
<stop offset="1" stop-color="#FD7C1E"/>
</linearGradient>
<linearGradient id="paint20_linear_404_182" x1="132.538" y1="145.246" x2="148.444" y2="160.239" gradientUnits="userSpaceOnUse">
<stop stop-color="#793300"/>
<stop offset="1" stop-color="#FD7C1E"/>
</linearGradient>
<linearGradient id="paint21_linear_404_182" x1="131.997" y1="145.006" x2="149.029" y2="160.571" gradientUnits="userSpaceOnUse">
<stop stop-color="#793300"/>
<stop offset="1" stop-color="#FD7C1E"/>
</linearGradient>
<linearGradient id="paint22_linear_404_182" x1="131.266" y1="144.578" x2="149.677" y2="160.879" gradientUnits="userSpaceOnUse">
<stop stop-color="#793300"/>
<stop offset="1" stop-color="#FD7C1E"/>
</linearGradient>
<linearGradient id="paint23_linear_404_182" x1="130.564" y1="144.272" x2="150.498" y2="161.367" gradientUnits="userSpaceOnUse">
<stop stop-color="#793300"/>
<stop offset="1" stop-color="#FD7C1E"/>
</linearGradient>
<linearGradient id="paint24_linear_404_182" x1="129.719" y1="143.885" x2="151.212" y2="161.721" gradientUnits="userSpaceOnUse">
<stop stop-color="#793300"/>
<stop offset="1" stop-color="#FD7C1E"/>
</linearGradient>
<linearGradient id="paint25_linear_404_182" x1="128.827" y1="143.349" x2="152.152" y2="162.062" gradientUnits="userSpaceOnUse">
<stop stop-color="#793300"/>
<stop offset="1" stop-color="#FD7C1E"/>
</linearGradient>
<linearGradient id="paint26_linear_404_182" x1="127.831" y1="142.946" x2="153.146" y2="162.566" gradientUnits="userSpaceOnUse">
<stop stop-color="#793300"/>
<stop offset="1" stop-color="#FD7C1E"/>
</linearGradient>
<linearGradient id="paint27_linear_404_182" x1="126.693" y1="142.502" x2="154.286" y2="163.139" gradientUnits="userSpaceOnUse">
<stop stop-color="#793300"/>
<stop offset="1" stop-color="#FD7C1E"/>
</linearGradient>
<linearGradient id="paint28_linear_404_182" x1="125.508" y1="142.002" x2="155.434" y2="163.565" gradientUnits="userSpaceOnUse">
<stop stop-color="#793300"/>
<stop offset="1" stop-color="#FD7C1E"/>
</linearGradient>
<linearGradient id="paint29_linear_404_182" x1="124.09" y1="141.439" x2="156.773" y2="164.096" gradientUnits="userSpaceOnUse">
<stop stop-color="#793300"/>
<stop offset="1" stop-color="#FD7C1E"/>
</linearGradient>
<linearGradient id="paint30_linear_404_182" x1="122.61" y1="140.826" x2="158.368" y2="164.633" gradientUnits="userSpaceOnUse">
<stop stop-color="#793300"/>
<stop offset="1" stop-color="#FD7C1E"/>
</linearGradient>
<linearGradient id="paint31_linear_404_182" x1="121.023" y1="140.272" x2="160.052" y2="165.181" gradientUnits="userSpaceOnUse">
<stop stop-color="#793300"/>
<stop offset="1" stop-color="#FD7C1E"/>
</linearGradient>
<linearGradient id="paint32_linear_404_182" x1="119.084" y1="139.643" x2="161.972" y2="165.82" gradientUnits="userSpaceOnUse">
<stop stop-color="#793300"/>
<stop offset="1" stop-color="#FD7C1E"/>
</linearGradient>
<linearGradient id="paint33_linear_404_182" x1="117.057" y1="139.113" x2="164.02" y2="166.458" gradientUnits="userSpaceOnUse">
<stop stop-color="#793300"/>
<stop offset="1" stop-color="#FD7C1E"/>
</linearGradient>
<linearGradient id="paint34_linear_404_182" x1="114.598" y1="138.468" x2="166.253" y2="167.071" gradientUnits="userSpaceOnUse">
<stop stop-color="#793300"/>
<stop offset="1" stop-color="#FD7C1E"/>
</linearGradient>
<linearGradient id="paint35_linear_404_182" x1="112.016" y1="137.884" x2="169.001" y2="167.799" gradientUnits="userSpaceOnUse">
<stop stop-color="#793300"/>
<stop offset="1" stop-color="#FD7C1E"/>
</linearGradient>
<linearGradient id="paint36_linear_404_182" x1="109.124" y1="137.229" x2="171.96" y2="168.373" gradientUnits="userSpaceOnUse">
<stop stop-color="#793300"/>
<stop offset="1" stop-color="#FD7C1E"/>
</linearGradient>
<linearGradient id="paint37_linear_404_182" x1="105.807" y1="136.585" x2="175.296" y2="168.957" gradientUnits="userSpaceOnUse">
<stop stop-color="#793300"/>
<stop offset="1" stop-color="#FD7C1E"/>
</linearGradient>
<linearGradient id="paint38_linear_404_182" x1="102.048" y1="136.04" x2="178.868" y2="169.498" gradientUnits="userSpaceOnUse">
<stop stop-color="#793300"/>
<stop offset="1" stop-color="#FD7C1E"/>
</linearGradient>
<linearGradient id="paint39_linear_404_182" x1="97.8364" y1="135.571" x2="183.1" y2="170.085" gradientUnits="userSpaceOnUse">
<stop stop-color="#793300"/>
<stop offset="1" stop-color="#FD7C1E"/>
</linearGradient>
<linearGradient id="paint40_linear_404_182" x1="93.1754" y1="135.12" x2="187.74" y2="170.43" gradientUnits="userSpaceOnUse">
<stop stop-color="#823700"/>
<stop offset="1" stop-color="#FD7C1E"/>
</linearGradient>
<linearGradient id="paint41_linear_404_182" x1="87.9008" y1="134.859" x2="193.048" y2="170.771" gradientUnits="userSpaceOnUse">
<stop stop-color="#793300"/>
<stop offset="1" stop-color="#FD7C1E"/>
</linearGradient>
<linearGradient id="paint42_linear_404_182" x1="81.9735" y1="134.7" x2="199.009" y2="170.874" gradientUnits="userSpaceOnUse">
<stop stop-color="#793300"/>
<stop offset="1" stop-color="#FD7C1E"/>
</linearGradient>
<linearGradient id="paint43_linear_404_182" x1="75.2362" y1="134.791" x2="205.603" y2="170.781" gradientUnits="userSpaceOnUse">
<stop stop-color="#793300"/>
<stop offset="1" stop-color="#FD7C1E"/>
</linearGradient>
<linearGradient id="paint44_linear_404_182" x1="67.848" y1="135.155" x2="213.15" y2="170.411" gradientUnits="userSpaceOnUse">
<stop stop-color="#793300"/>
<stop offset="1" stop-color="#FD7C1E"/>
</linearGradient>
<linearGradient id="paint45_linear_404_182" x1="59.4942" y1="135.874" x2="221.46" y2="169.677" gradientUnits="userSpaceOnUse">
<stop stop-color="#793300"/>
<stop offset="1" stop-color="#FD7C1E"/>
</linearGradient>
<linearGradient id="paint46_linear_404_182" x1="50.0728" y1="137.048" x2="230.859" y2="168.576" gradientUnits="userSpaceOnUse">
<stop stop-color="#793300"/>
<stop offset="1" stop-color="#FD7C1E"/>
</linearGradient>
<linearGradient id="paint47_linear_404_182" x1="39.6833" y1="138.655" x2="241.287" y2="166.827" gradientUnits="userSpaceOnUse">
<stop stop-color="#793300"/>
<stop offset="1" stop-color="#FD7C1E"/>
</linearGradient>
<linearGradient id="paint48_linear_404_182" x1="28.0302" y1="141.001" x2="252.81" y2="164.575" gradientUnits="userSpaceOnUse">
<stop stop-color="#793300"/>
<stop offset="1" stop-color="#FD7C1E"/>
</linearGradient>
<linearGradient id="paint49_linear_404_182" x1="15.2818" y1="143.974" x2="265.749" y2="161.488" gradientUnits="userSpaceOnUse">
<stop stop-color="#793300"/>
<stop offset="1" stop-color="#FD7C1E"/>
</linearGradient>
<linearGradient id="paint50_linear_404_182" x1="140.5" y1="13.2728" x2="140.5" y2="292.273" gradientUnits="userSpaceOnUse">
<stop stop-color="#793300"/>
<stop offset="1" stop-color="#FD7C1E"/>
</linearGradient>
</defs>
</svg>
